ply
format ascii 1.0
comment Created by Blender 2.78 (sub 0) - www.blender.org, source file: 'Photorealistic Human eye 2.0.blend'
element vertex 465
property float x
property float y
property float z
property float nx
property float ny
property float nz
element face 448
property list uchar uint vertex_indices
end_header
-0.124867 -1.008964 0.416284 -0.183050 -0.965880 -0.183050
-0.181599 -0.996553 0.422075 -0.276498 -0.944762 -0.175939
-0.171064 -0.987307 0.370087 -0.266396 -0.926298 -0.266366
-0.119076 -0.996553 0.359552 -0.175939 -0.944762 -0.276498
-0.165941 -0.973746 0.325856 -0.269845 -0.894314 -0.356853
-0.116590 -0.979588 0.309336 -0.180975 -0.907712 -0.378491
-0.231815 -0.979588 0.424561 -0.378491 -0.907712 -0.180975
-0.215295 -0.973746 0.375210 -0.356853 -0.894314 -0.269845
-0.199916 -0.967387 0.341235 -0.336375 -0.879574 -0.336375
-0.061048 -1.001899 0.350822 -0.087985 -0.953368 -0.288583
-0.063574 -1.016610 0.410779 -0.093051 -0.976684 -0.193365
-0.000000 -1.003597 0.346908 0.000000 -0.955626 -0.294534
-0.000000 -1.019242 0.408098 0.000000 -0.980071 -0.198553
-0.060084 -0.982667 0.297138 -0.090640 -0.914731 -0.393750
-0.000000 -0.983516 0.292120 0.000000 -0.916623 -0.399701
-0.066232 -1.026042 0.474920 -0.099673 -0.989990 -0.099673
-0.130372 -1.016610 0.477577 -0.193365 -0.976684 -0.093051
-0.067594 -1.029438 0.541151 -0.102847 -0.994690 0.000000
-0.133053 -1.019242 0.541151 -0.198553 -0.980071 0.000000
-0.000000 -1.029438 0.473558 0.000000 -0.994690 -0.102847
-0.000000 -1.033175 0.541151 0.000000 -1.000000 0.000000
-0.190329 -1.001899 0.480103 -0.288583 -0.953368 -0.087985
-0.244013 -0.982667 0.481067 -0.393750 -0.914731 -0.090640
-0.194243 -1.003597 0.541151 -0.294534 -0.955626 0.000000
-0.249031 -0.983516 0.541151 -0.399701 -0.916623 0.000000
0.124867 -1.008964 0.416284 0.183050 -0.965880 -0.183050
0.063574 -1.016610 0.410779 0.093051 -0.976684 -0.193365
0.061048 -1.001899 0.350822 0.087985 -0.953368 -0.288583
0.119076 -0.996553 0.359552 0.175939 -0.944762 -0.276498
0.060084 -0.982667 0.297138 0.090640 -0.914731 -0.393750
0.116590 -0.979588 0.309336 0.180975 -0.907712 -0.378491
0.171064 -0.987307 0.370087 0.266396 -0.926298 -0.266366
0.181599 -0.996553 0.422075 0.276498 -0.944762 -0.175939
0.215295 -0.973746 0.375210 0.356853 -0.894314 -0.269845
0.231815 -0.979588 0.424561 0.378491 -0.907712 -0.180975
0.165941 -0.973746 0.325856 0.269845 -0.894314 -0.356853
0.199916 -0.967387 0.341235 0.336375 -0.879574 -0.336375
0.190329 -1.001899 0.480103 0.288583 -0.953368 -0.087985
0.130372 -1.016610 0.477577 0.193365 -0.976684 -0.093051
0.194243 -1.003597 0.541151 0.294534 -0.955626 0.000000
0.133053 -1.019242 0.541151 0.198553 -0.980071 0.000000
0.244013 -0.982667 0.481067 0.393750 -0.914731 -0.090640
0.249031 -0.983516 0.541151 0.399701 -0.916623 0.000000
0.066231 -1.026042 0.474920 0.099673 -0.989990 -0.099673
0.067594 -1.029438 0.541151 0.102847 -0.994690 0.000000
-0.124867 -1.008964 0.666018 -0.183050 -0.965880 0.183050
-0.181599 -0.996553 0.660228 -0.276498 -0.944762 0.175939
-0.190329 -1.001899 0.602200 -0.288583 -0.953368 0.087985
-0.130372 -1.016610 0.604725 -0.193365 -0.976684 0.093051
-0.231815 -0.979588 0.657741 -0.378491 -0.907712 0.180975
-0.244013 -0.982667 0.601235 -0.393750 -0.914731 0.090640
-0.066232 -1.026042 0.607383 -0.099673 -0.989990 0.099673
-0.063574 -1.016610 0.671523 -0.093051 -0.976684 0.193365
-0.000000 -1.029438 0.608745 0.000000 -0.994690 0.102847
-0.000000 -1.019242 0.674204 0.000000 -0.980071 0.198553
-0.061048 -1.001899 0.731480 -0.087985 -0.953368 0.288583
-0.119076 -0.996553 0.722750 -0.175939 -0.944762 0.276498
-0.060084 -0.982667 0.785164 -0.090640 -0.914731 0.393750
-0.116590 -0.979588 0.772967 -0.180975 -0.907712 0.378491
-0.000000 -1.003597 0.735394 0.000000 -0.955626 0.294534
-0.000000 -0.983516 0.790182 0.000000 -0.916623 0.399701
-0.171064 -0.987307 0.712215 -0.266396 -0.926298 0.266366
-0.215295 -0.973746 0.707092 -0.356853 -0.894314 0.269845
-0.165941 -0.973746 0.756446 -0.269845 -0.894314 0.356853
-0.199916 -0.967387 0.741067 -0.336375 -0.879574 0.336375
0.124867 -1.008964 0.666018 0.183050 -0.965880 0.183050
0.063574 -1.016610 0.671523 0.093051 -0.976684 0.193365
0.066231 -1.026042 0.607383 0.099673 -0.989990 0.099673
0.130372 -1.016610 0.604725 0.193365 -0.976684 0.093051
0.190329 -1.001899 0.602200 0.288583 -0.953368 0.087985
0.181599 -0.996553 0.660228 0.276498 -0.944762 0.175939
0.244013 -0.982667 0.601235 0.393750 -0.914731 0.090640
0.231815 -0.979588 0.657741 0.378491 -0.907712 0.180975
0.171064 -0.987307 0.712215 0.266396 -0.926298 0.266366
0.119076 -0.996553 0.722750 0.175939 -0.944762 0.276498
0.165941 -0.973746 0.756446 0.269845 -0.894314 0.356853
0.116590 -0.979588 0.772967 0.180975 -0.907712 0.378491
0.215295 -0.973746 0.707092 0.356853 -0.894314 0.269845
0.199916 -0.967387 0.741067 0.336375 -0.879574 0.336375
0.061048 -1.001899 0.731480 0.087985 -0.953368 0.288583
0.060084 -0.982667 0.785164 0.090640 -0.914731 0.393750
0.178067 -0.805503 0.971044 0.293344 -0.642170 0.708182
0.090694 -0.805503 0.997844 0.152562 -0.642384 0.750999
0.087814 -0.823106 0.983341 0.152196 -0.644459 0.749321
0.172413 -0.823106 0.957393 0.292673 -0.644215 0.706595
0.085283 -0.838468 0.970594 0.151555 -0.648274 0.746147
0.167443 -0.838468 0.945394 0.291421 -0.648030 0.703604
-0.000000 -0.805503 1.007235 0.000000 -0.642781 0.766015
-0.000000 -0.823106 0.992435 0.000000 -0.644826 0.764306
-0.000000 -0.838468 0.979426 0.000000 -0.648671 0.761040
0.250582 -0.823106 0.915921 0.422193 -0.644459 0.637471
0.258800 -0.805503 0.928212 0.423170 -0.642384 0.638905
0.319106 -0.823106 0.860257 0.540422 -0.644826 0.540422
0.329571 -0.805503 0.870722 0.541642 -0.642781 0.541642
0.243358 -0.838468 0.905117 0.420423 -0.648274 0.634785
0.309907 -0.838468 0.851058 0.538133 -0.648671 0.538133
0.267681 -0.786407 0.941495 0.423627 -0.641346 0.639637
0.184178 -0.786407 0.985797 0.293680 -0.641133 0.709006
0.276894 -0.766563 0.955273 0.423902 -0.641041 0.639790
0.190517 -0.766563 1.001100 0.293771 -0.640797 0.709220
0.340881 -0.786407 0.882032 0.542283 -0.641743 0.542283
0.352613 -0.766563 0.893764 0.542467 -0.641438 0.542467
0.093806 -0.786407 1.013516 0.152715 -0.641346 0.751854
-0.000000 -0.786407 1.023230 0.000000 -0.641743 0.766900
0.097035 -0.766563 1.029773 0.152654 -0.641041 0.752129
-0.000000 -0.766563 1.039822 0.000000 -0.641438 0.767144
-0.429893 -0.805503 0.363084 -0.708182 -0.642170 -0.293344
-0.387061 -0.805503 0.282351 -0.638905 -0.642384 -0.423170
-0.374770 -0.823106 0.290569 -0.637471 -0.644459 -0.422193
-0.416242 -0.823106 0.368738 -0.706595 -0.644215 -0.292673
-0.363966 -0.838468 0.297793 -0.634785 -0.648274 -0.420423
-0.404243 -0.838468 0.373708 -0.703604 -0.648030 -0.291421
-0.329571 -0.805503 0.211580 -0.541642 -0.642781 -0.541642
-0.319106 -0.823106 0.222045 -0.540422 -0.644826 -0.540422
-0.309907 -0.838468 0.231244 -0.538133 -0.648671 -0.538133
-0.442190 -0.823106 0.453337 -0.749321 -0.644459 -0.152196
-0.456692 -0.805503 0.450457 -0.750999 -0.642384 -0.152562
-0.451284 -0.823106 0.541151 -0.764306 -0.644826 0.000000
-0.466084 -0.805503 0.541151 -0.766015 -0.642781 0.000000
-0.429443 -0.838468 0.455869 -0.746147 -0.648274 -0.151555
-0.438275 -0.838468 0.541151 -0.761040 -0.648671 0.000000
-0.472365 -0.786407 0.447345 -0.751854 -0.641346 -0.152715
-0.444646 -0.786407 0.356973 -0.709006 -0.641133 -0.293680
-0.488622 -0.766563 0.444116 -0.752129 -0.641041 -0.152654
-0.459949 -0.766563 0.350634 -0.709250 -0.640797 -0.293771
-0.482079 -0.786407 0.541151 -0.766900 -0.641743 0.000000
-0.498671 -0.766563 0.541151 -0.767144 -0.641438 0.000000
-0.400343 -0.786407 0.273470 -0.639637 -0.641346 -0.423627
-0.340881 -0.786407 0.200270 -0.542283 -0.641743 -0.542283
-0.414122 -0.766563 0.264257 -0.639790 -0.641041 -0.423902
-0.352613 -0.766563 0.188538 -0.542467 -0.641438 -0.542467
0.429893 -0.805503 0.363084 0.708182 -0.642170 -0.293344
0.456692 -0.805503 0.450457 0.750999 -0.642384 -0.152562
0.442190 -0.823106 0.453337 0.749321 -0.644459 -0.152196
0.416242 -0.823106 0.368738 0.706595 -0.644215 -0.292673
0.429443 -0.838468 0.455869 0.746147 -0.648274 -0.151555
0.404243 -0.838468 0.373708 0.703604 -0.648030 -0.291421
0.466084 -0.805503 0.541151 0.766015 -0.642781 0.000000
0.451284 -0.823106 0.541151 0.764306 -0.644826 0.000000
0.438274 -0.838468 0.541151 0.761040 -0.648671 0.000000
0.374769 -0.823106 0.290569 0.637471 -0.644459 -0.422193
0.387061 -0.805503 0.282351 0.638905 -0.642384 -0.423170
0.319106 -0.823106 0.222045 0.540422 -0.644826 -0.540422
0.329571 -0.805503 0.211580 0.541642 -0.642781 -0.541642
0.363966 -0.838468 0.297793 0.634785 -0.648274 -0.420423
0.309907 -0.838468 0.231244 0.538133 -0.648671 -0.538133
0.400343 -0.786407 0.273470 0.639637 -0.641346 -0.423627
0.444645 -0.786407 0.356973 0.709006 -0.641133 -0.293680
0.414122 -0.766563 0.264257 0.639790 -0.641041 -0.423902
0.459949 -0.766563 0.350634 0.709250 -0.640797 -0.293771
0.340881 -0.786407 0.200270 0.542283 -0.641743 -0.542253
0.352613 -0.766563 0.188538 0.542467 -0.641438 -0.542467
0.472365 -0.786407 0.447345 0.751854 -0.641346 -0.152715
0.482079 -0.786407 0.541151 0.766900 -0.641743 0.000000
0.488622 -0.766563 0.444116 0.752129 -0.641041 -0.152654
0.498671 -0.766563 0.541151 0.767144 -0.641438 0.000000
-0.178067 -0.805503 0.971044 -0.293344 -0.642170 0.708182
-0.258800 -0.805503 0.928212 -0.423170 -0.642384 0.638905
-0.250582 -0.823106 0.915921 -0.422193 -0.644459 0.637471
-0.172413 -0.823106 0.957393 -0.292673 -0.644215 0.706595
-0.243358 -0.838468 0.905117 -0.420423 -0.648274 0.634785
-0.167443 -0.838468 0.945394 -0.291421 -0.648030 0.703604
-0.329571 -0.805503 0.870722 -0.541642 -0.642781 0.541642
-0.319106 -0.823106 0.860257 -0.540422 -0.644826 0.540422
-0.309907 -0.838468 0.851058 -0.538133 -0.648671 0.538133
-0.087814 -0.823106 0.983341 -0.152196 -0.644459 0.749321
-0.090694 -0.805503 0.997844 -0.152562 -0.642384 0.750999
-0.085283 -0.838468 0.970594 -0.151555 -0.648274 0.746147
-0.093806 -0.786407 1.013516 -0.152715 -0.641346 0.751854
-0.184178 -0.786407 0.985797 -0.293680 -0.641133 0.709006
-0.097035 -0.766563 1.029773 -0.152654 -0.641041 0.752129
-0.190517 -0.766563 1.001100 -0.293771 -0.640797 0.709250
-0.267681 -0.786407 0.941495 -0.423627 -0.641346 0.639637
-0.340881 -0.786407 0.882032 -0.542283 -0.641743 0.542283
-0.276894 -0.766563 0.955273 -0.423902 -0.641041 0.639790
-0.352613 -0.766563 0.893764 -0.542467 -0.641438 0.542467
0.178067 -0.805503 0.111258 0.293344 -0.642170 -0.708182
0.258800 -0.805503 0.154091 0.423170 -0.642384 -0.638905
0.250582 -0.823106 0.166382 0.422193 -0.644459 -0.637471
0.172413 -0.823106 0.124910 0.292673 -0.644215 -0.706595
0.243358 -0.838468 0.177185 0.420423 -0.648274 -0.634785
0.167443 -0.838468 0.136909 0.291421 -0.648030 -0.703604
0.087814 -0.823106 0.098961 0.152196 -0.644459 -0.749321
0.090694 -0.805503 0.084459 0.152562 -0.642384 -0.750999
-0.000000 -0.823106 0.089868 0.000000 -0.644826 -0.764306
-0.000000 -0.805503 0.075067 0.000000 -0.642781 -0.766015
0.085282 -0.838468 0.111708 0.151555 -0.648274 -0.746147
-0.000000 -0.838468 0.102877 0.000000 -0.648671 -0.761040
0.093806 -0.786407 0.068786 0.152715 -0.641346 -0.751854
0.184178 -0.786407 0.096506 0.293680 -0.641133 -0.709006
0.097035 -0.766563 0.052529 0.152654 -0.641041 -0.752129
0.190517 -0.766563 0.081202 0.293771 -0.640797 -0.709250
-0.000000 -0.786407 0.059072 0.000000 -0.641743 -0.766900
-0.000000 -0.766563 0.042481 0.000000 -0.641438 -0.767144
0.267681 -0.786407 0.140808 0.423627 -0.641346 -0.639637
0.276894 -0.766563 0.127029 0.423902 -0.641041 -0.639790
0.429893 -0.805503 0.719219 0.708182 -0.642170 0.293344
0.387061 -0.805503 0.799951 0.638905 -0.642384 0.423170
0.374770 -0.823106 0.791733 0.637471 -0.644459 0.422193
0.416242 -0.823106 0.713564 0.706595 -0.644215 0.292673
0.363966 -0.838468 0.784509 0.634785 -0.648274 0.420423
0.404243 -0.838468 0.708594 0.703604 -0.648030 0.291421
0.442190 -0.823106 0.628965 0.749321 -0.644459 0.152196
0.456692 -0.805503 0.631845 0.750999 -0.642384 0.152562
0.429443 -0.838468 0.626434 0.746147 -0.648274 0.151555
0.472365 -0.786407 0.634957 0.751854 -0.641346 0.152715
0.444645 -0.786407 0.725329 0.709006 -0.641133 0.293680
0.488622 -0.766563 0.638186 0.752129 -0.641041 0.152654
0.459949 -0.766563 0.731668 0.709250 -0.640797 0.293771
0.400343 -0.786407 0.808832 0.639637 -0.641346 0.423627
0.414122 -0.766563 0.818045 0.639790 -0.641041 0.423902
-0.429893 -0.805503 0.719219 -0.708182 -0.642170 0.293344
-0.456692 -0.805503 0.631845 -0.750999 -0.642384 0.152562
-0.442190 -0.823106 0.628965 -0.749321 -0.644459 0.152196
-0.416242 -0.823106 0.713564 -0.706595 -0.644215 0.292673
-0.429443 -0.838468 0.626434 -0.746147 -0.648274 0.151555
-0.404243 -0.838468 0.708594 -0.703604 -0.648030 0.291421
-0.374770 -0.823106 0.791733 -0.637471 -0.644459 0.422193
-0.387061 -0.805503 0.799951 -0.638905 -0.642384 0.423170
-0.363966 -0.838468 0.784509 -0.634785 -0.648274 0.420423
-0.400343 -0.786407 0.808832 -0.639637 -0.641346 0.423627
-0.444646 -0.786407 0.725329 -0.709006 -0.641133 0.293680
-0.414122 -0.766563 0.818045 -0.639790 -0.641041 0.423902
-0.459949 -0.766563 0.731668 -0.709250 -0.640797 0.293771
-0.472365 -0.786407 0.634957 -0.751854 -0.641346 0.152715
-0.488622 -0.766563 0.638186 -0.752129 -0.641041 0.152654
-0.178067 -0.805503 0.111258 -0.293344 -0.642170 -0.708182
-0.090694 -0.805503 0.084459 -0.152562 -0.642384 -0.750999
-0.087814 -0.823106 0.098961 -0.152196 -0.644459 -0.749321
-0.172413 -0.823106 0.124910 -0.292673 -0.644215 -0.706595
-0.085283 -0.838468 0.111708 -0.151555 -0.648274 -0.746147
-0.167443 -0.838468 0.136909 -0.291421 -0.648030 -0.703604
-0.250582 -0.823106 0.166382 -0.422193 -0.644459 -0.637471
-0.258800 -0.805503 0.154091 -0.423170 -0.642384 -0.638905
-0.243358 -0.838468 0.177185 -0.420423 -0.648274 -0.634785
-0.267681 -0.786407 0.140808 -0.423627 -0.641346 -0.639637
-0.184178 -0.786407 0.096506 -0.293680 -0.641133 -0.709006
-0.276894 -0.766563 0.127029 -0.423902 -0.641041 -0.639790
-0.190517 -0.766563 0.081202 -0.293771 -0.640797 -0.709250
-0.093806 -0.786407 0.068786 -0.152715 -0.641346 -0.751854
-0.097035 -0.766563 0.052529 -0.152654 -0.641041 -0.752129
0.129451 -0.934800 0.849037 0.225501 -0.806421 0.546617
0.066053 -0.935148 0.867909 0.115726 -0.811151 0.573229
0.062108 -0.959671 0.830482 0.101962 -0.863186 0.494430
0.120997 -0.958276 0.814713 0.200903 -0.857082 0.474349
-0.000000 -0.935233 0.874629 0.000000 -0.813166 0.582018
-0.000000 -0.960010 0.836432 0.000000 -0.865413 0.501022
0.173448 -0.955452 0.791207 0.296182 -0.848933 0.437666
0.187541 -0.934093 0.819298 0.330058 -0.801752 0.498215
0.217216 -0.953682 0.758367 0.378918 -0.844264 0.378918
0.237910 -0.933651 0.779061 0.424238 -0.799982 0.424238
0.202175 -0.911337 0.843523 0.356212 -0.763207 0.539079
0.139106 -0.911337 0.876984 0.245613 -0.764885 0.595477
0.215247 -0.890476 0.863074 0.371014 -0.740562 0.560198
0.148101 -0.890476 0.898698 0.257210 -0.740379 0.620991
0.257461 -0.911337 0.798612 0.457289 -0.762719 0.457289
0.274108 -0.890476 0.815259 0.474868 -0.740898 0.474868
0.070850 -0.911337 0.897920 0.127171 -0.766808 0.629109
-0.000000 -0.911337 0.905256 0.000000 -0.767754 0.640706
0.075431 -0.890476 0.920987 0.133763 -0.740593 0.658498
-0.000000 -0.890476 0.928798 0.000000 -0.740898 0.671590
-0.307886 -0.934800 0.411700 -0.546617 -0.806421 -0.225501
-0.278147 -0.934093 0.353610 -0.498215 -0.801752 -0.330058
-0.250056 -0.955452 0.367703 -0.437666 -0.848933 -0.296182
-0.273562 -0.958277 0.420154 -0.474349 -0.857082 -0.200903
-0.237910 -0.933651 0.303242 -0.424238 -0.799982 -0.424238
-0.217216 -0.953682 0.323935 -0.378918 -0.844264 -0.378918
-0.289331 -0.959671 0.479043 -0.494430 -0.863186 -0.101962
-0.326758 -0.935148 0.475098 -0.573229 -0.811151 -0.115726
-0.295281 -0.960010 0.541151 -0.501022 -0.865413 0.000000
-0.333478 -0.935233 0.541151 -0.582018 -0.813166 0.000000
-0.356769 -0.911337 0.470301 -0.629109 -0.766808 -0.127171
-0.335833 -0.911337 0.402045 -0.595477 -0.764885 -0.245613
-0.379836 -0.890476 0.465720 -0.658498 -0.740562 -0.133763
-0.357547 -0.890476 0.393051 -0.620991 -0.740379 -0.257210
-0.364105 -0.911337 0.541151 -0.640706 -0.767754 0.000000
-0.387647 -0.890476 0.541151 -0.671590 -0.740898 0.000000
-0.302372 -0.911337 0.338976 -0.539079 -0.763207 -0.356212
-0.257461 -0.911337 0.283690 -0.457289 -0.762719 -0.457289
-0.321923 -0.890476 0.325904 -0.560198 -0.740562 -0.371014
-0.274108 -0.890476 0.267043 -0.474868 -0.740898 -0.474868
0.307886 -0.934800 0.411700 0.546617 -0.806421 -0.225501
0.326758 -0.935148 0.475098 0.573229 -0.811151 -0.115726
0.289331 -0.959671 0.479043 0.494430 -0.863186 -0.101962
0.273562 -0.958276 0.420154 0.474349 -0.857082 -0.200903
0.333478 -0.935233 0.541151 0.582018 -0.813166 0.000000
0.295281 -0.960010 0.541151 0.501022 -0.865413 0.000000
0.250056 -0.955452 0.367703 0.437666 -0.848933 -0.296182
0.278147 -0.934093 0.353610 0.498215 -0.801752 -0.330058
0.217216 -0.953682 0.323935 0.378918 -0.844264 -0.378918
0.237910 -0.933651 0.303241 0.424238 -0.799982 -0.424238
0.302372 -0.911337 0.338976 0.539079 -0.763207 -0.356212
0.335833 -0.911337 0.402045 0.595477 -0.764885 -0.245613
0.321922 -0.890476 0.325904 0.560198 -0.740593 -0.371014
0.357546 -0.890476 0.393051 0.620991 -0.740379 -0.257210
0.257461 -0.911337 0.283690 0.457289 -0.762719 -0.457289
0.274108 -0.890476 0.267043 0.474868 -0.740898 -0.474868
0.356768 -0.911337 0.470301 0.629109 -0.766808 -0.127171
0.364105 -0.911337 0.541151 0.640706 -0.767754 0.000000
0.379836 -0.890476 0.465720 0.658498 -0.740593 -0.133763
0.387647 -0.890476 0.541151 0.671590 -0.740898 0.000000
-0.129452 -0.934800 0.849037 -0.225501 -0.806421 0.546617
-0.187541 -0.934093 0.819298 -0.330058 -0.801752 0.498215
-0.173448 -0.955452 0.791207 -0.296182 -0.848933 0.437666
-0.120997 -0.958277 0.814713 -0.200903 -0.857082 0.474349
-0.237910 -0.933651 0.779061 -0.424238 -0.799982 0.424238
-0.217216 -0.953682 0.758367 -0.378918 -0.844264 0.378918
-0.062108 -0.959671 0.830482 -0.101962 -0.863186 0.494430
-0.066053 -0.935148 0.867909 -0.115726 -0.811151 0.573229
-0.070850 -0.911337 0.897920 -0.127171 -0.766808 0.629109
-0.139106 -0.911337 0.876984 -0.245613 -0.764885 0.595477
-0.075431 -0.890476 0.920987 -0.133763 -0.740593 0.658498
-0.148101 -0.890476 0.898698 -0.257210 -0.740379 0.620991
-0.202175 -0.911337 0.843523 -0.356212 -0.763207 0.539079
-0.257461 -0.911337 0.798612 -0.457289 -0.762719 0.457289
-0.215247 -0.890476 0.863074 -0.371014 -0.740593 0.560198
-0.274108 -0.890476 0.815259 -0.474868 -0.740898 0.474868
0.129451 -0.934800 0.233265 0.225501 -0.806421 -0.546617
0.187541 -0.934093 0.263004 0.330058 -0.801752 -0.498215
0.173448 -0.955452 0.291096 0.296182 -0.848933 -0.437666
0.120997 -0.958277 0.267589 0.200903 -0.857082 -0.474349
0.062108 -0.959671 0.251820 0.101962 -0.863186 -0.494430
0.066053 -0.935148 0.214393 0.115726 -0.811151 -0.573229
-0.000000 -0.960010 0.245870 0.000000 -0.865413 -0.501022
-0.000000 -0.935233 0.207673 0.000000 -0.813166 -0.582018
0.070850 -0.911337 0.184383 0.127171 -0.766808 -0.629109
0.139106 -0.911337 0.205319 0.245613 -0.764885 -0.595477
0.075431 -0.890476 0.161315 0.133763 -0.740562 -0.658498
0.148101 -0.890476 0.183605 0.257210 -0.740379 -0.620991
-0.000000 -0.911337 0.177046 0.000000 -0.767754 -0.640706
-0.000000 -0.890476 0.153504 0.000000 -0.740898 -0.671590
0.202175 -0.911337 0.238779 0.356212 -0.763207 -0.539079
0.215247 -0.890476 0.219229 0.371014 -0.740562 -0.560198
0.307886 -0.934800 0.670603 0.546617 -0.806421 0.225501
0.278147 -0.934093 0.728692 0.498215 -0.801752 0.330058
0.250056 -0.955452 0.714599 0.437666 -0.848933 0.296182
0.273562 -0.958277 0.662148 0.474349 -0.857082 0.200903
0.289331 -0.959671 0.603259 0.494430 -0.863186 0.101962
0.326758 -0.935148 0.607204 0.573229 -0.811151 0.115726
0.356768 -0.911337 0.612001 0.629109 -0.766808 0.127171
0.335833 -0.911337 0.680258 0.595477 -0.764885 0.245613
0.379836 -0.890476 0.616582 0.658498 -0.740593 0.133763
0.357546 -0.890476 0.689252 0.620991 -0.740379 0.257210
0.302372 -0.911337 0.743326 0.539079 -0.763207 0.356212
0.321923 -0.890476 0.756398 0.560198 -0.740562 0.371014
-0.307886 -0.934800 0.670603 -0.546617 -0.806421 0.225501
-0.326758 -0.935148 0.607204 -0.573229 -0.811151 0.115726
-0.289331 -0.959671 0.603259 -0.494430 -0.863186 0.101962
-0.273562 -0.958276 0.662148 -0.474349 -0.857082 0.200903
-0.250056 -0.955452 0.714599 -0.437666 -0.848933 0.296182
-0.278147 -0.934093 0.728692 -0.498215 -0.801752 0.330058
-0.302372 -0.911337 0.743326 -0.539079 -0.763207 0.356212
-0.335833 -0.911337 0.680258 -0.595477 -0.764885 0.245613
-0.321923 -0.890476 0.756398 -0.560198 -0.740593 0.371014
-0.357547 -0.890476 0.689252 -0.620991 -0.740379 0.257210
-0.356769 -0.911337 0.612001 -0.629109 -0.766808 0.127171
-0.379836 -0.890476 0.616582 -0.658498 -0.740562 0.133763
-0.129452 -0.934800 0.233265 -0.225501 -0.806421 -0.546617
-0.066053 -0.935148 0.214393 -0.115726 -0.811151 -0.573229
-0.062108 -0.959671 0.251820 -0.101962 -0.863186 -0.494430
-0.120997 -0.958276 0.267589 -0.200903 -0.857082 -0.474349
-0.173448 -0.955452 0.291096 -0.296182 -0.848933 -0.437666
-0.187541 -0.934093 0.263004 -0.330058 -0.801752 -0.498215
-0.202175 -0.911337 0.238779 -0.356212 -0.763207 -0.539079
-0.139106 -0.911337 0.205319 -0.245613 -0.764885 -0.595477
-0.215247 -0.890476 0.219229 -0.371014 -0.740593 -0.560198
-0.148101 -0.890476 0.183605 -0.257210 -0.740379 -0.620991
-0.070850 -0.911337 0.184383 -0.127171 -0.766808 -0.629109
-0.075431 -0.890476 0.161315 -0.133763 -0.740562 -0.658498
-0.159381 -0.862272 0.156371 -0.276559 -0.691122 -0.667684
-0.081177 -0.862272 0.132383 -0.143834 -0.691336 -0.708029
-0.078728 -0.874802 0.144716 -0.138035 -0.720542 -0.679495
-0.154573 -0.874802 0.167980 -0.265419 -0.720328 -0.640797
-0.000000 -0.862272 0.123977 0.000000 -0.691671 -0.722190
-0.000000 -0.874802 0.136564 0.000000 -0.720847 -0.693045
-0.224653 -0.874802 0.205160 -0.382855 -0.720542 -0.578082
-0.231642 -0.862272 0.194708 -0.398938 -0.691336 -0.602374
-0.286087 -0.874802 0.255065 -0.490066 -0.720847 -0.490066
-0.294987 -0.862272 0.246165 -0.510666 -0.691671 -0.510666
-0.237461 -0.850842 0.186005 -0.413465 -0.662740 -0.624317
-0.163385 -0.850842 0.146705 -0.286630 -0.662526 -0.692007
-0.302397 -0.850842 0.238754 -0.529283 -0.663076 -0.529283
-0.083216 -0.850842 0.122115 -0.149052 -0.662740 -0.733818
-0.000000 -0.850842 0.113497 0.000000 -0.663106 -0.748497
-0.384781 -0.862272 0.700532 -0.667684 -0.691122 0.276559
-0.408768 -0.862272 0.622328 -0.708029 -0.691336 0.143834
-0.396435 -0.874802 0.619879 -0.679495 -0.720542 0.138035
-0.373172 -0.874802 0.695724 -0.640797 -0.720328 0.265419
-0.417174 -0.862272 0.541151 -0.722190 -0.691671 0.000000
-0.404588 -0.874802 0.541151 -0.693045 -0.720847 0.000000
-0.335991 -0.874802 0.765804 -0.578082 -0.720542 0.382855
-0.346443 -0.862272 0.772793 -0.602374 -0.691336 0.398938
-0.286087 -0.874802 0.827238 -0.490066 -0.720847 0.490066
-0.294987 -0.862272 0.836138 -0.510666 -0.691671 0.510666
-0.355146 -0.850842 0.778612 -0.624317 -0.662740 0.413465
-0.394447 -0.850842 0.704536 -0.692007 -0.662526 0.286630
-0.302397 -0.850842 0.843548 -0.529283 -0.663076 0.529283
-0.419036 -0.850842 0.624367 -0.733818 -0.662740 0.149052
-0.427654 -0.850842 0.541151 -0.748497 -0.663106 0.000000
0.384780 -0.862272 0.700532 0.667684 -0.691122 0.276559
0.346443 -0.862272 0.772793 0.602374 -0.691336 0.398938
0.335991 -0.874802 0.765804 0.578082 -0.720542 0.382855
0.373171 -0.874802 0.695724 0.640797 -0.720328 0.265419
0.294987 -0.862272 0.836138 0.510666 -0.691671 0.510666
0.286087 -0.874802 0.827238 0.490066 -0.720847 0.490066
0.396435 -0.874802 0.619879 0.679495 -0.720542 0.138035
0.408768 -0.862272 0.622328 0.708029 -0.691336 0.143834
0.404588 -0.874802 0.541151 0.693045 -0.720847 0.000000
0.417174 -0.862272 0.541151 0.722190 -0.691671 0.000000
0.419036 -0.850842 0.624367 0.733818 -0.662740 0.149052
0.394447 -0.850842 0.704536 0.692007 -0.662526 0.286630
0.427654 -0.850842 0.541151 0.748497 -0.663076 0.000000
0.355146 -0.850842 0.778612 0.624317 -0.662740 0.413465
0.302397 -0.850842 0.843548 0.529283 -0.663106 0.529283
0.159381 -0.862272 0.156371 0.276559 -0.691122 -0.667684
0.231642 -0.862272 0.194708 0.398938 -0.691336 -0.602374
0.224653 -0.874802 0.205160 0.382855 -0.720542 -0.578082
0.154573 -0.874802 0.167980 0.265419 -0.720328 -0.640797
0.294986 -0.862272 0.246165 0.510666 -0.691671 -0.510666
0.286087 -0.874802 0.255065 0.490066 -0.720847 -0.490066
0.078727 -0.874802 0.144716 0.138035 -0.720542 -0.679495
0.081177 -0.862272 0.132383 0.143834 -0.691336 -0.708029
0.083216 -0.850842 0.122115 0.149052 -0.662740 -0.733818
0.163385 -0.850842 0.146705 0.286630 -0.662526 -0.692007
0.237461 -0.850842 0.186005 0.413465 -0.662740 -0.624317
0.302397 -0.850842 0.238754 0.529283 -0.663106 -0.529283
-0.159381 -0.862272 0.925932 -0.276559 -0.691122 0.667684
-0.231642 -0.862272 0.887594 -0.398938 -0.691336 0.602374
-0.224653 -0.874802 0.877142 -0.382855 -0.720542 0.578082
-0.154573 -0.874802 0.914323 -0.265419 -0.720328 0.640797
-0.078728 -0.874802 0.937586 -0.138035 -0.720542 0.679495
-0.081177 -0.862272 0.949919 -0.143834 -0.691336 0.708029
-0.000000 -0.874802 0.945739 0.000000 -0.720847 0.693045
-0.000000 -0.862272 0.958325 0.000000 -0.691671 0.722190
-0.083216 -0.850842 0.960188 -0.149052 -0.662740 0.733818
-0.163385 -0.850842 0.935598 -0.286630 -0.662526 0.692007
-0.000000 -0.850842 0.968805 0.000000 -0.663106 0.748497
-0.237461 -0.850842 0.896297 -0.413465 -0.662740 0.624317
0.384780 -0.862272 0.381770 0.667684 -0.691122 -0.276559
0.408768 -0.862272 0.459974 0.708029 -0.691336 -0.143834
0.396435 -0.874802 0.462424 0.679495 -0.720542 -0.138035
0.373171 -0.874802 0.386578 0.640797 -0.720328 -0.265419
0.335991 -0.874802 0.316498 0.578082 -0.720542 -0.382855
0.346443 -0.862272 0.309509 0.602374 -0.691336 -0.398938
0.355146 -0.850842 0.303690 0.624317 -0.662740 -0.413465
0.394446 -0.850842 0.377766 0.692007 -0.662526 -0.286630
0.419036 -0.850842 0.457935 0.733818 -0.662740 -0.149052
-0.384781 -0.862272 0.381770 -0.667684 -0.691122 -0.276559
-0.346443 -0.862272 0.309509 -0.602374 -0.691336 -0.398938
-0.335991 -0.874802 0.316498 -0.578082 -0.720542 -0.382855
-0.373172 -0.874802 0.386579 -0.640797 -0.720328 -0.265419
-0.396435 -0.874802 0.462424 -0.679495 -0.720542 -0.138035
-0.408768 -0.862272 0.459975 -0.708029 -0.691336 -0.143834
-0.419036 -0.850842 0.457935 -0.733818 -0.662740 -0.149052
-0.394447 -0.850842 0.377766 -0.692007 -0.662526 -0.286630
-0.355146 -0.850842 0.303690 -0.624317 -0.662740 -0.413465
0.159381 -0.862272 0.925932 0.276559 -0.691122 0.667684
0.081177 -0.862272 0.949919 0.143834 -0.691336 0.708029
0.078727 -0.874802 0.937586 0.138035 -0.720542 0.679495
0.154573 -0.874802 0.914323 0.265419 -0.720328 0.640797
0.224653 -0.874802 0.877142 0.382855 -0.720542 0.578082
0.231642 -0.862272 0.887594 0.398938 -0.691336 0.602374
0.237461 -0.850842 0.896297 0.413465 -0.662740 0.624317
0.163385 -0.850842 0.935598 0.286630 -0.662526 0.692007
0.083216 -0.850842 0.960188 0.149052 -0.662740 0.733818
4 0 1 2 3
4 3 2 4 5
4 1 6 7 2
4 2 7 8 4
4 0 3 9 10
4 10 9 11 12
4 3 5 13 9
4 9 13 14 11
4 0 10 15 16
4 16 15 17 18
4 10 12 19 15
4 15 19 20 17
4 0 16 21 1
4 1 21 22 6
4 16 18 23 21
4 21 23 24 22
4 25 26 27 28
4 28 27 29 30
4 26 12 11 27
4 27 11 14 29
4 25 28 31 32
4 32 31 33 34
4 28 30 35 31
4 31 35 36 33
4 25 32 37 38
4 38 37 39 40
4 32 34 41 37
4 37 41 42 39
4 25 38 43 26
4 26 43 19 12
4 38 40 44 43
4 43 44 20 19
4 45 46 47 48
4 48 47 23 18
4 46 49 50 47
4 47 50 24 23
4 45 48 51 52
4 52 51 53 54
4 48 18 17 51
4 51 17 20 53
4 45 52 55 56
4 56 55 57 58
4 52 54 59 55
4 55 59 60 57
4 45 56 61 46
4 46 61 62 49
4 56 58 63 61
4 61 63 64 62
4 65 66 67 68
4 68 67 44 40
4 66 54 53 67
4 67 53 20 44
4 65 68 69 70
4 70 69 71 72
4 68 40 39 69
4 69 39 42 71
4 65 70 73 74
4 74 73 75 76
4 70 72 77 73
4 73 77 78 75
4 65 74 79 66
4 66 79 59 54
4 74 76 80 79
4 79 80 60 59
4 81 82 83 84
4 84 83 85 86
4 82 87 88 83
4 83 88 89 85
4 81 84 90 91
4 91 90 92 93
4 84 86 94 90
4 90 94 95 92
4 81 91 96 97
4 97 96 98 99
4 91 93 100 96
4 96 100 101 98
4 81 97 102 82
4 82 102 103 87
4 97 99 104 102
4 102 104 105 103
4 106 107 108 109
4 109 108 110 111
4 107 112 113 108
4 108 113 114 110
4 106 109 115 116
4 116 115 117 118
4 109 111 119 115
4 115 119 120 117
4 106 116 121 122
4 122 121 123 124
4 116 118 125 121
4 121 125 126 123
4 106 122 127 107
4 107 127 128 112
4 122 124 129 127
4 127 129 130 128
4 131 132 133 134
4 134 133 135 136
4 132 137 138 133
4 133 138 139 135
4 131 134 140 141
4 141 140 142 143
4 134 136 144 140
4 140 144 145 142
4 131 141 146 147
4 147 146 148 149
4 141 143 150 146
4 146 150 151 148
4 131 147 152 132
4 132 152 153 137
4 147 149 154 152
4 152 154 155 153
4 156 157 158 159
4 159 158 160 161
4 157 162 163 158
4 158 163 164 160
4 156 159 165 166
4 166 165 88 87
4 159 161 167 165
4 165 167 89 88
4 156 166 168 169
4 169 168 170 171
4 166 87 103 168
4 168 103 105 170
4 156 169 172 157
4 157 172 173 162
4 169 171 174 172
4 172 174 175 173
4 176 177 178 179
4 179 178 180 181
4 177 143 142 178
4 178 142 145 180
4 176 179 182 183
4 183 182 184 185
4 179 181 186 182
4 182 186 187 184
4 176 183 188 189
4 189 188 190 191
4 183 185 192 188
4 188 192 193 190
4 176 189 194 177
4 177 194 150 143
4 189 191 195 194
4 194 195 151 150
4 196 197 198 199
4 199 198 200 201
4 197 93 92 198
4 198 92 95 200
4 196 199 202 203
4 203 202 138 137
4 199 201 204 202
4 202 204 139 138
4 196 203 205 206
4 206 205 207 208
4 203 137 153 205
4 205 153 155 207
4 196 206 209 197
4 197 209 100 93
4 206 208 210 209
4 209 210 101 100
4 211 212 213 214
4 214 213 215 216
4 212 118 117 213
4 213 117 120 215
4 211 214 217 218
4 218 217 163 162
4 214 216 219 217
4 217 219 164 163
4 211 218 220 221
4 221 220 222 223
4 218 162 173 220
4 220 173 175 222
4 211 221 224 212
4 212 224 125 118
4 221 223 225 224
4 224 225 126 125
4 226 227 228 229
4 229 228 230 231
4 227 185 184 228
4 228 184 187 230
4 226 229 232 233
4 233 232 113 112
4 229 231 234 232
4 232 234 114 113
4 226 233 235 236
4 236 235 237 238
4 233 112 128 235
4 235 128 130 237
4 226 236 239 227
4 227 239 192 185
4 236 238 240 239
4 239 240 193 192
4 241 242 243 244
4 244 243 80 76
4 242 245 246 243
4 243 246 60 80
4 241 244 247 248
4 248 247 249 250
4 244 76 75 247
4 247 75 78 249
4 241 248 251 252
4 252 251 253 254
4 248 250 255 251
4 251 255 256 253
4 241 252 257 242
4 242 257 258 245
4 252 254 259 257
4 257 259 260 258
4 261 262 263 264
4 264 263 7 6
4 262 265 266 263
4 263 266 8 7
4 261 264 267 268
4 268 267 269 270
4 264 6 22 267
4 267 22 24 269
4 261 268 271 272
4 272 271 273 274
4 268 270 275 271
4 271 275 276 273
4 261 272 277 262
4 262 277 278 265
4 272 274 279 277
4 277 279 280 278
4 281 282 283 284
4 284 283 41 34
4 282 285 286 283
4 283 286 42 41
4 281 284 287 288
4 288 287 289 290
4 284 34 33 287
4 287 33 36 289
4 281 288 291 292
4 292 291 293 294
4 288 290 295 291
4 291 295 296 293
4 281 292 297 282
4 282 297 298 285
4 292 294 299 297
4 297 299 300 298
4 301 302 303 304
4 304 303 63 58
4 302 305 306 303
4 303 306 64 63
4 301 304 307 308
4 308 307 246 245
4 304 58 57 307
4 307 57 60 246
4 301 308 309 310
4 310 309 311 312
4 308 245 258 309
4 309 258 260 311
4 301 310 313 302
4 302 313 314 305
4 310 312 315 313
4 313 315 316 314
4 317 318 319 320
4 320 319 35 30
4 318 290 289 319
4 319 289 36 35
4 317 320 321 322
4 322 321 323 324
4 320 30 29 321
4 321 29 14 323
4 317 322 325 326
4 326 325 327 328
4 322 324 329 325
4 325 329 330 327
4 317 326 331 318
4 318 331 295 290
4 326 328 332 331
4 331 332 296 295
4 333 334 335 336
4 336 335 77 72
4 334 250 249 335
4 335 249 78 77
4 333 336 337 338
4 338 337 286 285
4 336 72 71 337
4 337 71 42 286
4 333 338 339 340
4 340 339 341 342
4 338 285 298 339
4 339 298 300 341
4 333 340 343 334
4 334 343 255 250
4 340 342 344 343
4 343 344 256 255
4 345 346 347 348
4 348 347 50 49
4 346 270 269 347
4 347 269 24 50
4 345 348 349 350
4 350 349 306 305
4 348 49 62 349
4 349 62 64 306
4 345 350 351 352
4 352 351 353 354
4 350 305 314 351
4 351 314 316 353
4 345 352 355 346
4 346 355 275 270
4 352 354 356 355
4 355 356 276 275
4 357 358 359 360
4 360 359 13 5
4 358 324 323 359
4 359 323 14 13
4 357 360 361 362
4 362 361 266 265
4 360 5 4 361
4 361 4 8 266
4 357 362 363 364
4 364 363 365 366
4 362 265 278 363
4 363 278 280 365
4 357 364 367 358
4 358 367 329 324
4 364 366 368 367
4 367 368 330 329
4 369 370 371 372
4 372 371 368 366
4 370 373 374 371
4 371 374 330 368
4 369 372 375 376
4 376 375 377 378
4 372 366 365 375
4 375 365 280 377
4 369 376 379 380
4 380 379 234 231
4 376 378 381 379
4 379 381 114 234
4 369 380 382 370
4 370 382 383 373
4 380 231 230 382
4 382 230 187 383
4 384 385 386 387
4 387 386 356 354
4 385 388 389 386
4 386 389 276 356
4 384 387 390 391
4 391 390 392 393
4 387 354 353 390
4 390 353 316 392
4 384 391 394 395
4 395 394 219 216
4 391 393 396 394
4 394 396 164 219
4 384 395 397 385
4 385 397 398 388
4 395 216 215 397
4 397 215 120 398
4 399 400 401 402
4 402 401 344 342
4 400 403 404 401
4 401 404 256 344
4 399 402 405 406
4 406 405 407 408
4 402 342 341 405
4 405 341 300 407
4 399 406 409 410
4 410 409 204 201
4 406 408 411 409
4 409 411 139 204
4 399 410 412 400
4 400 412 413 403
4 410 201 200 412
4 412 200 95 413
4 414 415 416 417
4 417 416 332 328
4 415 418 419 416
4 416 419 296 332
4 414 417 420 421
4 421 420 374 373
4 417 328 327 420
4 420 327 330 374
4 414 421 422 423
4 423 422 186 181
4 421 373 383 422
4 422 383 187 186
4 414 423 424 415
4 415 424 425 418
4 423 181 180 424
4 424 180 145 425
4 426 427 428 429
4 429 428 315 312
4 427 393 392 428
4 428 392 316 315
4 426 429 430 431
4 431 430 432 433
4 429 312 311 430
4 430 311 260 432
4 426 431 434 435
4 435 434 167 161
4 431 433 436 434
4 434 436 89 167
4 426 435 437 427
4 427 437 396 393
4 435 161 160 437
4 437 160 164 396
4 438 439 440 441
4 441 440 299 294
4 439 408 407 440
4 440 407 300 299
4 438 441 442 443
4 443 442 419 418
4 441 294 293 442
4 442 293 296 419
4 438 443 444 445
4 445 444 144 136
4 443 418 425 444
4 444 425 145 144
4 438 445 446 439
4 439 446 411 408
4 445 136 135 446
4 446 135 139 411
4 447 448 449 450
4 450 449 279 274
4 448 378 377 449
4 449 377 280 279
4 447 450 451 452
4 452 451 389 388
4 450 274 273 451
4 451 273 276 389
4 447 452 453 454
4 454 453 119 111
4 452 388 398 453
4 453 398 120 119
4 447 454 455 448
4 448 455 381 378
4 454 111 110 455
4 455 110 114 381
4 456 457 458 459
4 459 458 259 254
4 457 433 432 458
4 458 432 260 259
4 456 459 460 461
4 461 460 404 403
4 459 254 253 460
4 460 253 256 404
4 456 461 462 463
4 463 462 94 86
4 461 403 413 462
4 462 413 95 94
4 456 463 464 457
4 457 464 436 433
4 463 86 85 464
4 464 85 89 436
