ply
format ascii 1.0
comment Created by Blender 2.78 (sub 0) - www.blender.org, source file: 'free_eye.blend'
element vertex 230
property float x
property float y
property float z
property float nx
property float ny
property float nz
property float s
property float t
element face 352
property list uchar uint vertex_indices
end_header
0.128876 0.174829 0.400436 0.000000 0.000000 1.000000 0.000000 1.000000
0.128876 0.231415 0.397759 0.000000 0.098849 0.995086 0.000000 0.937500
0.117916 0.230327 0.397759 -0.019410 0.096957 0.995086 0.031250 0.937500
0.128876 0.174829 0.400436 0.000000 0.000000 1.000000 0.031250 1.000000
0.107377 0.227107 0.397759 -0.038118 0.091311 0.995086 0.062500 0.937500
0.128876 0.174829 0.400436 0.000000 0.000000 1.000000 0.062500 1.000000
0.097665 0.221878 0.397759 -0.055330 0.082156 0.995056 0.093750 0.937500
0.128876 0.174829 0.400436 0.000000 0.000000 1.000000 0.093750 1.000000
0.089152 0.214841 0.397759 -0.070406 0.069857 0.995056 0.125000 0.937500
0.128876 0.174829 0.400436 0.000000 0.000000 1.000000 0.125000 1.000000
0.082165 0.206266 0.397759 -0.082766 0.054872 0.995025 0.156250 0.937500
0.128876 0.174829 0.400436 0.000000 0.000000 1.000000 0.156250 1.000000
0.076973 0.196484 0.397759 -0.091952 0.037782 0.995025 0.187500 0.937500
0.128876 0.174829 0.400436 0.000000 0.000000 1.000000 0.187500 1.000000
0.073776 0.185869 0.397759 -0.097598 0.019257 0.995025 0.218750 0.937500
0.128876 0.174829 0.400436 0.000000 0.000000 1.000000 0.218750 1.000000
0.072697 0.174829 0.397759 -0.099521 0.000000 0.995025 0.250000 0.937500
0.128876 0.174829 0.400436 0.000000 0.000000 1.000000 0.250000 1.000000
0.073776 0.163790 0.397759 -0.097598 -0.019257 0.995025 0.281250 0.937500
0.128876 0.174829 0.400436 0.000000 0.000000 1.000000 0.281250 1.000000
0.076973 0.153175 0.397759 -0.091952 -0.037782 0.995025 0.312500 0.937500
0.128876 0.174829 0.400436 0.000000 0.000000 1.000000 0.312500 1.000000
0.082165 0.143392 0.397759 -0.082766 -0.054872 0.995025 0.343750 0.937500
0.128876 0.174829 0.400436 0.000000 0.000000 1.000000 0.343750 1.000000
0.089152 0.134817 0.397759 -0.070406 -0.069857 0.995056 0.375000 0.937500
0.128876 0.174829 0.400436 0.000000 0.000000 1.000000 0.375000 1.000000
0.097665 0.127780 0.397759 -0.055300 -0.082156 0.995056 0.406250 0.937500
0.128876 0.174829 0.400436 0.000000 0.000000 1.000000 0.406250 1.000000
0.107377 0.122551 0.397759 -0.038087 -0.091311 0.995086 0.437500 0.937500
0.128876 0.174829 0.400436 0.000000 0.000000 1.000000 0.437500 1.000000
0.117916 0.119331 0.397759 -0.019410 -0.096957 0.995086 0.468750 0.937500
0.128876 0.174829 0.400436 0.000000 0.000000 1.000000 0.468750 1.000000
0.128876 0.118244 0.397759 0.000000 -0.098849 0.995086 0.500000 0.937500
0.128876 0.174829 0.400436 0.000000 0.000000 1.000000 0.500000 1.000000
0.139836 0.119331 0.397759 0.019410 -0.096957 0.995086 0.531250 0.937500
0.128876 0.174829 0.400436 0.000000 0.000000 1.000000 0.531250 1.000000
0.150375 0.122551 0.397759 0.038087 -0.091311 0.995086 0.562500 0.937500
0.128876 0.174829 0.400436 0.000000 0.000000 1.000000 0.562500 1.000000
0.160088 0.127780 0.397759 0.055330 -0.082156 0.995056 0.593750 0.937500
0.128876 0.174829 0.400436 0.000000 0.000000 1.000000 0.593750 1.000000
0.168601 0.134817 0.397759 0.070406 -0.069857 0.995056 0.625000 0.937500
0.128876 0.174829 0.400436 0.000000 0.000000 1.000000 0.625000 1.000000
0.175588 0.143392 0.397759 0.082766 -0.054872 0.995025 0.656250 0.937500
0.128876 0.174829 0.400436 0.000000 0.000000 1.000000 0.656250 1.000000
0.180779 0.153175 0.397759 0.091952 -0.037782 0.995025 0.687500 0.937500
0.128876 0.174829 0.400436 0.000000 0.000000 1.000000 0.687500 1.000000
0.183976 0.163790 0.397759 0.097598 -0.019257 0.995025 0.718750 0.937500
0.128876 0.174829 0.400436 0.000000 0.000000 1.000000 0.718750 1.000000
0.185056 0.174829 0.397759 0.099521 0.000000 0.995025 0.750000 0.937500
0.128876 0.174829 0.400436 0.000000 0.000000 1.000000 0.750000 1.000000
0.183976 0.185869 0.397759 0.097598 0.019257 0.995025 0.781250 0.937500
0.128876 0.174829 0.400436 0.000000 0.000000 1.000000 0.781250 1.000000
0.180779 0.196484 0.397759 0.091952 0.037782 0.995025 0.812500 0.937500
0.128876 0.174829 0.400436 0.000000 0.000000 1.000000 0.812500 1.000000
0.175588 0.206266 0.397759 0.082766 0.054872 0.995025 0.843750 0.937500
0.128876 0.174829 0.400436 0.000000 0.000000 1.000000 0.843750 1.000000
0.168601 0.214841 0.397759 0.070406 0.069857 0.995056 0.875000 0.937500
0.128876 0.174829 0.400436 0.000000 0.000000 1.000000 0.875000 1.000000
0.160088 0.221878 0.397759 0.055330 0.082156 0.995056 0.906250 0.937500
0.128876 0.174829 0.400436 0.000000 0.000000 1.000000 0.906250 1.000000
0.150375 0.227107 0.397759 0.038087 0.091311 0.995086 0.937500 0.937500
0.128876 0.174829 0.400436 0.000000 0.000000 1.000000 0.937500 1.000000
0.139836 0.230327 0.397759 0.019410 0.096957 0.995086 0.968750 0.937500
0.128876 0.174829 0.400436 0.000000 0.000000 1.000000 0.968750 1.000000
0.128876 0.231415 0.397759 0.000000 0.098849 0.995086 1.000000 0.937500
0.107377 0.283693 0.389831 -0.039277 0.196051 0.979797 0.031250 0.875000
0.128876 0.285825 0.389831 0.000000 0.199927 0.979797 0.000000 0.875000
0.086705 0.277376 0.389831 -0.077059 0.184667 0.979766 0.062500 0.875000
0.067653 0.267119 0.389831 -0.111850 0.166173 0.979705 0.093750 0.875000
0.050953 0.253315 0.389831 -0.142338 0.141301 0.979644 0.125000 0.875000
0.037248 0.236495 0.389831 -0.167364 0.110996 0.979614 0.156250 0.875000
0.027065 0.217306 0.389831 -0.185949 0.076449 0.979553 0.187500 0.875000
0.020794 0.196484 0.389831 -0.197394 0.038972 0.979522 0.218750 0.875000
0.018676 0.174829 0.389831 -0.201239 0.000000 0.979522 0.250000 0.875000
0.020794 0.153175 0.389831 -0.197394 -0.038972 0.979522 0.281250 0.875000
0.027065 0.132353 0.389831 -0.185949 -0.076449 0.979553 0.312500 0.875000
0.037249 0.113163 0.389831 -0.167364 -0.110996 0.979614 0.343750 0.875000
0.050953 0.096343 0.389831 -0.142338 -0.141301 0.979644 0.375000 0.875000
0.067653 0.082539 0.389831 -0.111850 -0.166173 0.979705 0.406250 0.875000
0.086705 0.072282 0.389831 -0.077059 -0.184667 0.979766 0.437500 0.875000
0.107377 0.065966 0.389831 -0.039277 -0.196051 0.979797 0.468750 0.875000
0.128876 0.063833 0.389831 0.000000 -0.199927 0.979797 0.500000 0.875000
0.150375 0.065966 0.389831 0.039277 -0.196051 0.979797 0.531250 0.875000
0.171048 0.072282 0.389831 0.077059 -0.184667 0.979766 0.562500 0.875000
0.190100 0.082540 0.389831 0.111850 -0.166173 0.979705 0.593750 0.875000
0.206800 0.096343 0.389831 0.142338 -0.141301 0.979644 0.625000 0.875000
0.220504 0.113163 0.389831 0.167364 -0.110996 0.979614 0.656250 0.875000
0.230688 0.132353 0.389831 0.185949 -0.076449 0.979553 0.687500 0.875000
0.236959 0.153175 0.389831 0.197394 -0.038972 0.979522 0.718750 0.875000
0.239076 0.174829 0.389831 0.201239 0.000000 0.979522 0.750000 0.875000
0.236959 0.196484 0.389831 0.197394 0.038972 0.979522 0.781250 0.875000
0.230688 0.217306 0.389831 0.185949 0.076449 0.979553 0.812500 0.875000
0.220504 0.236496 0.389831 0.167364 0.110996 0.979614 0.843750 0.875000
0.206799 0.253315 0.389831 0.142338 0.141301 0.979644 0.875000 0.875000
0.190100 0.267119 0.389831 0.111850 0.166173 0.979705 0.906250 0.875000
0.171048 0.277376 0.389831 0.077059 0.184667 0.979766 0.937500 0.875000
0.150375 0.283693 0.389831 0.039277 0.196051 0.979797 0.968750 0.875000
0.128876 0.285825 0.389831 0.000000 0.199927 0.979797 1.000000 0.875000
0.097665 0.332874 0.376957 -0.061251 0.305795 0.950102 0.031250 0.812500
0.128876 0.335971 0.376957 0.000000 0.311808 0.950133 0.000000 0.812500
0.067653 0.323704 0.376957 -0.120182 0.288034 0.950041 0.062500 0.812500
0.039993 0.308813 0.376957 -0.174444 0.259163 0.949919 0.093750 0.812500
0.015750 0.288773 0.376957 -0.221992 0.220344 0.949797 0.125000 0.812500
-0.004147 0.264355 0.376957 -0.260964 0.173101 0.949675 0.156250 0.812500
-0.018931 0.236495 0.376957 -0.289926 0.119205 0.949583 0.187500 0.812500
-0.028035 0.206266 0.376957 -0.307749 0.060762 0.949492 0.218750 0.812500
-0.031109 0.174829 0.376957 -0.313761 0.000000 0.949492 0.250000 0.812500
-0.028035 0.143392 0.376957 -0.307749 -0.060762 0.949492 0.281250 0.812500
-0.018931 0.113163 0.376957 -0.289926 -0.119205 0.949583 0.312500 0.812500
-0.004147 0.085304 0.376957 -0.260964 -0.173101 0.949675 0.343750 0.812500
0.015750 0.060885 0.376957 -0.221992 -0.220374 0.949797 0.375000 0.812500
0.039993 0.040845 0.376957 -0.174444 -0.259163 0.949919 0.406250 0.812500
0.067653 0.025954 0.376957 -0.120182 -0.288034 0.950041 0.437500 0.812500
0.097665 0.016784 0.376957 -0.061251 -0.305795 0.950102 0.468750 0.812500
0.128877 0.013688 0.376957 0.000000 -0.311808 0.950133 0.500000 0.812500
0.160088 0.016784 0.376957 0.061251 -0.305795 0.950102 0.531250 0.812500
0.190100 0.025954 0.376957 0.120182 -0.288034 0.950041 0.562500 0.812500
0.217760 0.040845 0.376957 0.174444 -0.259163 0.949919 0.593750 0.812500
0.242003 0.060885 0.376957 0.221992 -0.220344 0.949797 0.625000 0.812500
0.261900 0.085304 0.376957 0.260964 -0.173101 0.949675 0.656250 0.812500
0.276684 0.113163 0.376957 0.289926 -0.119205 0.949583 0.687500 0.812500
0.285788 0.143392 0.376957 0.307749 -0.060762 0.949492 0.718750 0.812500
0.288862 0.174830 0.376957 0.313761 0.000000 0.949492 0.750000 0.812500
0.285788 0.206267 0.376957 0.307749 0.060762 0.949492 0.781250 0.812500
0.276684 0.236496 0.376957 0.289926 0.119205 0.949583 0.812500 0.812500
0.261899 0.264355 0.376957 0.260964 0.173101 0.949675 0.843750 0.812500
0.242003 0.288774 0.376957 0.221992 0.220344 0.949797 0.875000 0.812500
0.217759 0.308814 0.376957 0.174444 0.259163 0.949919 0.906250 0.812500
0.190100 0.323705 0.376957 0.120182 0.288034 0.950041 0.937500 0.812500
0.160088 0.332874 0.376957 0.061251 0.305795 0.950102 0.968750 0.812500
0.128876 0.335971 0.376957 0.000000 0.311808 0.950133 1.000000 0.812500
0.089152 0.375982 0.359631 -0.086673 0.432600 0.897397 0.031250 0.750000
0.128876 0.379923 0.359631 0.000000 0.441115 0.897427 0.000000 0.750000
0.050953 0.364311 0.359631 -0.169988 0.407422 0.897244 0.062500 0.750000
0.015750 0.345359 0.359631 -0.246712 0.366558 0.897061 0.093750 0.750000
-0.015107 0.319853 0.359631 -0.313913 0.311655 0.896817 0.125000 0.750000
-0.040430 0.288773 0.359631 -0.368999 0.244758 0.896603 0.156250 0.750000
-0.059247 0.253315 0.359631 -0.409925 0.168554 0.896390 0.187500 0.750000
-0.070834 0.214841 0.359631 -0.435072 0.085910 0.896268 0.218750 0.750000
-0.074747 0.174829 0.359631 -0.443587 0.000000 0.896207 0.250000 0.750000
-0.070834 0.134817 0.359631 -0.435072 -0.085910 0.896268 0.281250 0.750000
-0.059247 0.096343 0.359631 -0.409925 -0.168554 0.896390 0.312500 0.750000
-0.040430 0.060885 0.359631 -0.368999 -0.244789 0.896603 0.343750 0.750000
-0.015107 0.029806 0.359631 -0.313913 -0.311655 0.896817 0.375000 0.750000
0.015750 0.004300 0.359631 -0.246712 -0.366558 0.897061 0.406250 0.750000
0.050953 -0.014653 0.359631 -0.169988 -0.407422 0.897244 0.437500 0.750000
0.089152 -0.026324 0.359631 -0.086673 -0.432600 0.897397 0.468750 0.750000
0.128877 -0.030265 0.359631 0.000000 -0.441115 0.897427 0.500000 0.750000
0.168601 -0.026324 0.359631 0.086673 -0.432600 0.897397 0.531250 0.750000
0.206800 -0.014653 0.359631 0.169988 -0.407422 0.897244 0.562500 0.750000
0.242003 0.004300 0.359631 0.246712 -0.366558 0.897061 0.593750 0.750000
0.272860 0.029806 0.359631 0.313913 -0.311655 0.896817 0.625000 0.750000
0.298183 0.060885 0.359631 0.368999 -0.244758 0.896603 0.656250 0.750000
0.316999 0.096344 0.359631 0.409925 -0.168554 0.896390 0.687500 0.750000
0.328587 0.134818 0.359631 0.435072 -0.085910 0.896268 0.718750 0.750000
0.332499 0.174830 0.359631 0.443587 0.000000 0.896207 0.750000 0.750000
0.328587 0.214841 0.359631 0.435072 0.085910 0.896268 0.781250 0.750000
0.316999 0.253316 0.359631 0.409925 0.168554 0.896390 0.812500 0.750000
0.298182 0.288774 0.359631 0.368999 0.244789 0.896603 0.843750 0.750000
0.272859 0.319853 0.359631 0.313913 0.311655 0.896817 0.875000 0.750000
0.242003 0.345359 0.359631 0.246712 0.366558 0.897061 0.906250 0.750000
0.206799 0.364312 0.359631 0.169988 0.407422 0.897244 0.937500 0.750000
0.168601 0.375982 0.359631 0.086673 0.432600 0.897397 0.968750 0.750000
0.128876 0.379923 0.359631 0.000000 0.441115 0.897427 1.000000 0.750000
0.082165 0.411360 0.338520 -0.116672 0.582415 0.804437 0.031250 0.687500
0.128876 0.415994 0.338520 0.000000 0.593890 0.804529 0.000000 0.687500
0.037248 0.397637 0.338520 -0.228797 0.548448 0.804224 0.062500 0.687500
-0.004147 0.375351 0.338520 -0.332041 0.493362 0.803919 0.093750 0.687500
-0.040430 0.345359 0.338520 -0.422376 0.419355 0.803552 0.125000 0.687500
-0.070207 0.308813 0.338520 -0.496414 0.329295 0.803156 0.156250 0.687500
-0.092333 0.267119 0.338520 -0.551347 0.226722 0.802850 0.187500 0.687500
-0.105958 0.221878 0.338520 -0.585131 0.115543 0.802637 0.218750 0.687500
-0.110559 0.174829 0.338520 -0.596515 0.000000 0.802576 0.250000 0.687500
-0.105958 0.127780 0.338520 -0.585131 -0.115543 0.802637 0.281250 0.687500
-0.092333 0.082539 0.338520 -0.551347 -0.226722 0.802850 0.312500 0.687500
-0.070207 0.040845 0.338520 -0.496414 -0.329295 0.803156 0.343750 0.687500
-0.040430 0.004300 0.338520 -0.422376 -0.419355 0.803552 0.375000 0.687500
-0.004147 -0.025692 0.338520 -0.332041 -0.493362 0.803919 0.406250 0.687500
0.037249 -0.047978 0.338520 -0.228797 -0.548448 0.804224 0.437500 0.687500
0.082165 -0.061702 0.338520 -0.116672 -0.582415 0.804437 0.468750 0.687500
0.128877 -0.066336 0.338520 0.000000 -0.593890 0.804529 0.500000 0.687500
0.175588 -0.061702 0.338520 0.116672 -0.582415 0.804437 0.531250 0.687500
0.220504 -0.047978 0.338520 0.228797 -0.548448 0.804224 0.562500 0.687500
0.261900 -0.025692 0.338520 0.332041 -0.493362 0.803919 0.593750 0.687500
0.298183 0.004300 0.338520 0.422376 -0.419355 0.803552 0.625000 0.687500
0.327960 0.040845 0.338520 0.496414 -0.329295 0.803156 0.656250 0.687500
0.350086 0.082540 0.338520 0.551347 -0.226722 0.802850 0.687500 0.687500
0.363711 0.127781 0.338520 0.585131 -0.115543 0.802637 0.718750 0.687500
0.368311 0.174830 0.338520 0.596515 0.000000 0.802576 0.750000 0.687500
0.363711 0.221879 0.338520 0.585131 0.115543 0.802637 0.781250 0.687500
0.350085 0.267119 0.338520 0.551347 0.226722 0.802850 0.812500 0.687500
0.327959 0.308814 0.338520 0.496414 0.329295 0.803156 0.843750 0.687500
0.298182 0.345359 0.338520 0.422376 0.419355 0.803552 0.875000 0.687500
0.261899 0.375351 0.338520 0.332041 0.493362 0.803919 0.906250 0.687500
0.220504 0.397637 0.338520 0.228797 0.548448 0.804224 0.937500 0.687500
0.175587 0.411360 0.338520 0.116672 0.582415 0.804437 0.968750 0.687500
0.128876 0.415994 0.338520 0.000000 0.593890 0.804529 1.000000 0.687500
0.076973 0.437648 0.314434 -0.131199 0.655477 0.743706 0.031250 0.625000
0.128876 0.442797 0.314434 0.000000 0.668386 0.743797 0.000000 0.625000
0.027065 0.422400 0.314434 -0.257332 0.617267 0.743431 0.062500 0.625000
-0.018931 0.397637 0.314434 -0.373455 0.555315 0.743034 0.093750 0.625000
-0.059247 0.364311 0.314434 -0.475082 0.472030 0.742576 0.125000 0.625000
-0.092333 0.323704 0.314434 -0.558367 0.370678 0.742119 0.156250 0.625000
-0.116918 0.277376 0.314434 -0.620197 0.255226 0.741752 0.187500 0.625000
-0.132058 0.227107 0.314434 -0.658223 0.130070 0.741478 0.218750 0.625000
-0.137170 0.174829 0.314434 -0.671041 0.000000 0.741386 0.250000 0.625000
-0.132058 0.122551 0.314434 -0.658223 -0.130070 0.741478 0.281250 0.625000
-0.116918 0.072282 0.314434 -0.620197 -0.255226 0.741752 0.312500 0.625000
-0.092333 0.025954 0.314434 -0.558367 -0.370678 0.742119 0.343750 0.625000
-0.059247 -0.014653 0.314434 -0.475082 -0.472030 0.742576 0.375000 0.625000
-0.018931 -0.047978 0.314434 -0.373455 -0.555315 0.743034 0.406250 0.625000
0.027065 -0.072741 0.314434 -0.257332 -0.617267 0.743431 0.437500 0.625000
0.076974 -0.087990 0.314434 -0.131199 -0.655477 0.743706 0.468750 0.625000
0.128877 -0.093139 0.314434 0.000000 -0.668386 0.743797 0.500000 0.625000
0.180780 -0.087990 0.314434 0.131199 -0.655477 0.743706 0.531250 0.625000
0.230688 -0.072741 0.314434 0.257332 -0.617267 0.743431 0.562500 0.625000
0.276684 -0.047978 0.314434 0.373455 -0.555315 0.743034 0.593750 0.625000
0.317000 -0.014653 0.314434 0.475082 -0.472030 0.742576 0.625000 0.625000
0.350086 0.025954 0.314434 0.558367 -0.370678 0.742119 0.656250 0.625000
0.374671 0.072283 0.314434 0.620197 -0.255226 0.741752 0.687500 0.625000
0.389811 0.122552 0.314434 0.658223 -0.130070 0.741478 0.718750 0.625000
0.394922 0.174830 0.314434 0.671041 0.000000 0.741386 0.750000 0.625000
0.389810 0.227108 0.314434 0.658223 0.130070 0.741478 0.781250 0.625000
0.374671 0.277377 0.314434 0.620197 0.255226 0.741752 0.812500 0.625000
0.350085 0.323705 0.314434 0.558367 0.370678 0.742119 0.843750 0.625000
0.316999 0.364312 0.314434 0.475082 0.472030 0.742576 0.875000 0.625000
0.276683 0.397637 0.314434 0.373455 0.555315 0.743034 0.906250 0.625000
0.230687 0.422400 0.314434 0.257332 0.617267 0.743431 0.937500 0.625000
0.180779 0.437649 0.314434 0.131199 0.655477 0.743706 0.968750 0.625000
0.128876 0.442797 0.314434 0.000000 0.668386 0.743797 1.000000 0.625000
3 0 1 2
3 3 2 4
3 5 4 6
3 7 6 8
3 9 8 10
3 11 10 12
3 13 12 14
3 15 14 16
3 17 16 18
3 19 18 20
3 21 20 22
3 23 22 24
3 25 24 26
3 27 26 28
3 29 28 30
3 31 30 32
3 33 32 34
3 35 34 36
3 37 36 38
3 39 38 40
3 41 40 42
3 43 42 44
3 45 44 46
3 47 46 48
3 49 48 50
3 51 50 52
3 53 52 54
3 55 54 56
3 57 56 58
3 59 58 60
3 61 60 62
3 63 62 64
3 65 2 1
3 1 66 65
3 67 4 2
3 2 65 67
3 68 6 4
3 4 67 68
3 69 8 6
3 6 68 69
3 70 10 8
3 8 69 70
3 71 12 10
3 10 70 71
3 72 14 12
3 12 71 72
3 73 16 14
3 14 72 73
3 74 18 16
3 16 73 74
3 75 20 18
3 18 74 75
3 76 22 20
3 20 75 76
3 77 24 22
3 22 76 77
3 78 26 24
3 24 77 78
3 79 28 26
3 26 78 79
3 80 30 28
3 28 79 80
3 81 32 30
3 30 80 81
3 82 34 32
3 32 81 82
3 83 36 34
3 34 82 83
3 84 38 36
3 36 83 84
3 85 40 38
3 38 84 85
3 86 42 40
3 40 85 86
3 87 44 42
3 42 86 87
3 88 46 44
3 44 87 88
3 89 48 46
3 46 88 89
3 90 50 48
3 48 89 90
3 91 52 50
3 50 90 91
3 92 54 52
3 52 91 92
3 93 56 54
3 54 92 93
3 94 58 56
3 56 93 94
3 95 60 58
3 58 94 95
3 96 62 60
3 60 95 96
3 97 64 62
3 62 96 97
3 98 65 66
3 66 99 98
3 100 67 65
3 65 98 100
3 101 68 67
3 67 100 101
3 102 69 68
3 68 101 102
3 103 70 69
3 69 102 103
3 104 71 70
3 70 103 104
3 105 72 71
3 71 104 105
3 106 73 72
3 72 105 106
3 107 74 73
3 73 106 107
3 108 75 74
3 74 107 108
3 109 76 75
3 75 108 109
3 110 77 76
3 76 109 110
3 111 78 77
3 77 110 111
3 112 79 78
3 78 111 112
3 113 80 79
3 79 112 113
3 114 81 80
3 80 113 114
3 115 82 81
3 81 114 115
3 116 83 82
3 82 115 116
3 117 84 83
3 83 116 117
3 118 85 84
3 84 117 118
3 119 86 85
3 85 118 119
3 120 87 86
3 86 119 120
3 121 88 87
3 87 120 121
3 122 89 88
3 88 121 122
3 123 90 89
3 89 122 123
3 124 91 90
3 90 123 124
3 125 92 91
3 91 124 125
3 126 93 92
3 92 125 126
3 127 94 93
3 93 126 127
3 128 95 94
3 94 127 128
3 129 96 95
3 95 128 129
3 130 97 96
3 96 129 130
3 131 98 99
3 99 132 131
3 133 100 98
3 98 131 133
3 134 101 100
3 100 133 134
3 135 102 101
3 101 134 135
3 136 103 102
3 102 135 136
3 137 104 103
3 103 136 137
3 138 105 104
3 104 137 138
3 139 106 105
3 105 138 139
3 140 107 106
3 106 139 140
3 141 108 107
3 107 140 141
3 142 109 108
3 108 141 142
3 143 110 109
3 109 142 143
3 144 111 110
3 110 143 144
3 145 112 111
3 111 144 145
3 146 113 112
3 112 145 146
3 147 114 113
3 113 146 147
3 148 115 114
3 114 147 148
3 149 116 115
3 115 148 149
3 150 117 116
3 116 149 150
3 151 118 117
3 117 150 151
3 152 119 118
3 118 151 152
3 153 120 119
3 119 152 153
3 154 121 120
3 120 153 154
3 155 122 121
3 121 154 155
3 156 123 122
3 122 155 156
3 157 124 123
3 123 156 157
3 158 125 124
3 124 157 158
3 159 126 125
3 125 158 159
3 160 127 126
3 126 159 160
3 161 128 127
3 127 160 161
3 162 129 128
3 128 161 162
3 163 130 129
3 129 162 163
3 164 131 132
3 132 165 164
3 166 133 131
3 131 164 166
3 167 134 133
3 133 166 167
3 168 135 134
3 134 167 168
3 169 136 135
3 135 168 169
3 170 137 136
3 136 169 170
3 171 138 137
3 137 170 171
3 172 139 138
3 138 171 172
3 173 140 139
3 139 172 173
3 174 141 140
3 140 173 174
3 175 142 141
3 141 174 175
3 176 143 142
3 142 175 176
3 177 144 143
3 143 176 177
3 178 145 144
3 144 177 178
3 179 146 145
3 145 178 179
3 180 147 146
3 146 179 180
3 181 148 147
3 147 180 181
3 182 149 148
3 148 181 182
3 183 150 149
3 149 182 183
3 184 151 150
3 150 183 184
3 185 152 151
3 151 184 185
3 186 153 152
3 152 185 186
3 187 154 153
3 153 186 187
3 188 155 154
3 154 187 188
3 189 156 155
3 155 188 189
3 190 157 156
3 156 189 190
3 191 158 157
3 157 190 191
3 192 159 158
3 158 191 192
3 193 160 159
3 159 192 193
3 194 161 160
3 160 193 194
3 195 162 161
3 161 194 195
3 196 163 162
3 162 195 196
3 197 164 165
3 165 198 197
3 199 166 164
3 164 197 199
3 200 167 166
3 166 199 200
3 201 168 167
3 167 200 201
3 202 169 168
3 168 201 202
3 203 170 169
3 169 202 203
3 204 171 170
3 170 203 204
3 205 172 171
3 171 204 205
3 206 173 172
3 172 205 206
3 207 174 173
3 173 206 207
3 208 175 174
3 174 207 208
3 209 176 175
3 175 208 209
3 210 177 176
3 176 209 210
3 211 178 177
3 177 210 211
3 212 179 178
3 178 211 212
3 213 180 179
3 179 212 213
3 214 181 180
3 180 213 214
3 215 182 181
3 181 214 215
3 216 183 182
3 182 215 216
3 217 184 183
3 183 216 217
3 218 185 184
3 184 217 218
3 219 186 185
3 185 218 219
3 220 187 186
3 186 219 220
3 221 188 187
3 187 220 221
3 222 189 188
3 188 221 222
3 223 190 189
3 189 222 223
3 224 191 190
3 190 223 224
3 225 192 191
3 191 224 225
3 226 193 192
3 192 225 226
3 227 194 193
3 193 226 227
3 228 195 194
3 194 227 228
3 229 196 195
3 195 228 229
